# xmcd CD database file
#
# Track frame offsets:
#	150
#	42817
#	64800
#	83392
#	112275
#	138352
#	172497
#	204820
#
# Disc length: 2918 seconds
#
# Revision: 0
# Processed by: cddbd v1.5.2PL0 Copyright (c) Steve Scherf et al.
# Submitted via: CDex 1.51
#
DISCID=6c0b6408
DTITLE=Joe Turner - Nobody In Mind
DYEAR=1975
DGENRE=Blues
TTITLE0=	I Want A Little Girl
TTITLE1=Nobody In Mind
TTITLE2=Chicken And The Hawk, The
TTITLE3=I Just Didn't Have The Price
TTITLE4=How Long, How Long Blues
TTITLE5=	Crawdad Hole
TTITLE6=Juke Joint Blues
TTITLE7=Red Sails In The Sunset
EXTD=YEAR: 1975
EXTT0=
EXTT1=
EXTT2=
EXTT3=
EXTT4=
EXTT5=
EXTT6=
EXTT7=
PLAYORDER=
